<svg xmlns="http://www.w3.org/2000/svg" width="85.602" height="69.127" viewBox="0 0 85.602 69.127"><defs><style>.a{fill:#888;}</style></defs><g transform="translate(-9.996 -104.3)"><path class="a" d="M62.51,222.71a33.142,33.142,0,0,1-29.969-18.605c-1.948-3.756-4.254-5.8-6.219-6.638-5.354-2.6-12.456.3-11.355,8.586.349,8.027,10.919,9.652,9.844,2.07.131-2.586,3.555-3.485,4.726-.28,3.407,9.338-11.626,14.823-17.592,4.7s2.323-26.886,17.321-18.946c3.188,1.616,5.9,5.005,8.237,9.888A28.33,28.33,0,0,0,62.51,218.212c15.6,0,28.24-12.307,28.24-27.488s-12.639-27.488-28.24-27.488c-14.5,0-26.449,10.639-28.056,24.344-.07.62-3.424,1.267-4.909.48,1.284-16.64,15.539-29.76,32.965-29.76,18.273-.009,33.087,14.412,33.087,32.205S80.784,222.71,62.51,222.71Z" transform="translate(0 -49.283)"/><path class="a" d="M267.488,109.008h0c2.647,0,7.311,1.31,11.7,2.83a61.31,61.31,0,0,0-6.638,3.747,53.754,53.754,0,0,0-5.852,4.481c-.192-4.892.052-9.25.708-11.058h.087m0-4.708a5.308,5.308,0,0,0-2.865.62c-4.455,2.926-2.088,22.414-2.088,22.414a1.927,1.927,0,0,0,1.441,2.131,57.082,57.082,0,0,1,11.154-9.931,75.265,75.265,0,0,1,14.683-7.058,1.928,1.928,0,0,0-1.432-2.131S274.4,104.3,267.488,104.3Z" transform="translate(-229.906)"/><path class="a" d="M652.919,109.008h.1c.62,1.747.882,5.879.716,10.569a45.1,45.1,0,0,0-5.7-4.507,50.1,50.1,0,0,0-6.228-3.442c4.2-1.415,8.578-2.62,11.111-2.62m0-4.708c-6.909,0-20.894,6.044-20.894,6.044a1.916,1.916,0,0,0-1.441,2.131,58.494,58.494,0,0,1,14.858,6.551,50.026,50.026,0,0,1,10.98,10.438,1.916,1.916,0,0,0,1.441-2.131s2.367-19.487-2.079-22.414a5.328,5.328,0,0,0-2.865-.62Z" transform="translate(-566.371)"/><path class="a" d="M233.7,472.163a2.463,2.463,0,1,0,2.463-2.463,2.46,2.46,0,0,0-2.463,2.463Z" transform="translate(-204.164 -333.483)"/><path class="a" d="M289.2,501.3" transform="translate(-254.816 -362.323)"/><path class="a" d="M289.2,499.6" transform="translate(-254.816 -360.771)"/><path class="a" d="M289.2,499.6" transform="translate(-254.816 -360.771)"/></g></svg>