<svg xmlns="http://www.w3.org/2000/svg" width="18" height="17" viewBox="0 0 18 17"><defs><style>.a,.c{fill:#707070;}.b,.c{stroke:none;}</style></defs><g class="a"><path class="b" d="M 14.09146976470947 16.35295295715332 L 9.131839752197266 14.99717998504639 L 9 14.96113014221191 L 8.868160247802734 14.99717998504639 L 3.90852165222168 16.35295295715332 L 3.67455005645752 11.25391960144043 L 3.668210029602051 11.11565017700195 L 3.591660022735596 11.00032997131348 L 0.7648072242736816 6.741531848907471 L 5.574920177459717 4.945240020751953 L 5.703579902648926 4.897200107574463 L 5.789649963378906 4.790170192718506 L 9 0.7978857755661011 L 12.21035003662109 4.790170192718506 L 12.29642009735107 4.897200107574463 L 12.42508029937744 4.945240020751953 L 17.23519325256348 6.741531848907471 L 14.40834045410156 11.00032997131348 L 14.33178997039795 11.11565017700195 L 14.32544994354248 11.25391960144043 L 14.09146976470947 16.35295295715332 Z"/><path class="c" d="M 9 1.595759391784668 L 6.179289817810059 5.103500366210938 L 6.007160186767578 5.317549705505371 L 5.749839782714844 5.413649559020996 L 1.529624938964844 6.989649772644043 L 4.00823974609375 10.72381019592285 L 4.16133975982666 10.95446014404297 L 4.174030303955078 11.23099994659424 L 4.379362106323242 15.70589065551758 L 8.736310005187988 14.51486968994141 L 9 14.44279003143311 L 9.263689994812012 14.51486968994141 L 13.62063026428223 15.70589065551758 L 13.82596969604492 11.23099994659424 L 13.83865928649902 10.95446014404297 L 13.99176025390625 10.72381019592285 L 16.47037506103516 6.989649772644043 L 12.25016021728516 5.413649559020996 L 11.99283981323242 5.317549705505371 L 11.82071018218994 5.103500366210938 L 9 1.595759391784668 M 9 0 L 12.60000038146973 4.476840019226074 L 18 6.493419647216797 L 14.82491970062256 11.27684020996094 L 14.56229972839355 17 L 9 15.47947978973389 L 3.437689781188965 17 L 3.175080299377441 11.27684020996094 L 0 6.493419647216797 L 5.399999618530273 4.476840019226074 L 9 0 Z"/></g></svg>